<?xml version="1.0" encoding="utf-8"?>
<!-- Generator: Adobe Illustrator 18.0.0, SVG Export Plug-In . SVG Version: 6.00 Build 0)  -->
<!DOCTYPE svg PUBLIC "-//W3C//DTD SVG 1.1//EN" "http://www.w3.org/Graphics/SVG/1.1/DTD/svg11.dtd">
<svg version="1.1" id="Layer_1" xmlns="http://www.w3.org/2000/svg" xmlns:xlink="http://www.w3.org/1999/xlink" x="0px" y="0px"
	 viewBox="-0.5 319.6 1921.1 440.9" enable-background="new -0.5 319.6 1921.1 440.9" xml:space="preserve">
<g>
	<path fill="#00BCD4" d="M641.8,486.2h-75.7v63.9h72.1l2-26.7h34.1v61.1H497.5v-26.9l23.8-4.6V392.6l-23.8-4.6v-27h23.8H674v61.2
		h-34.4l-2-26.7h-71.5v56.2h75.7V486.2z"/>
	<path fill="#00BCD4" d="M804.5,564.2c-5.2,7.7-11.4,13.5-18.5,17.5s-15.2,6-24.3,6c-20.5,0-36.4-7.5-47.7-22.4s-17-34.7-17-59.2
		v-3.2c0-26.2,5.7-47.3,17-63.4c11.4-16.1,27.3-24.1,47.9-24.1c8.3,0,15.8,1.8,22.4,5.5c6.6,3.6,12.5,8.8,17.5,15.4v-59.6L778,372
		v-27h23.9h44.8v208l21.5,4.6v26.9h-60.3L804.5,564.2z M741.9,506c0,14.5,2.4,26,7.3,34.3c4.9,8.3,12.8,12.5,23.9,12.5
		c6.5,0,12.2-1.3,17-4s8.7-6.5,11.8-11.5v-70.5c-3.1-5.3-7-9.4-11.7-12.4c-4.8-2.9-10.4-4.4-16.8-4.4c-11,0-18.9,4.9-23.9,14.6
		S742,487,742,502.7L741.9,506L741.9,506z"/>
	<path fill="#00BCD4" d="M998.7,563.4c-5.3,7.8-11.9,13.8-19.7,18s-16.8,6.3-26.8,6.3c-17.5,0-31.2-5.6-41.1-16.8
		c-9.9-11.2-14.9-28.6-14.9-52.3V450l-18.3-4.6v-27h18.3H941v100.5c0,12.1,2,20.7,6.1,26c4,5.3,10.1,7.9,18,7.9
		c7.1,0,13.2-1.2,18.3-3.5c5.2-2.3,9.4-5.6,12.7-9.9V450l-19.6-4.6v-27h19.6h44.8V553l20.1,4.6v26.9h-59.4L998.7,563.4z"/>
	<path fill="#262626" d="M1077.6,584.4v-26.9l23.8-4.6V392.6l-23.8-4.6v-27h23.8h44.8h23.9v27l-23.9,4.6v157.5h63.1l2.1-28.1h34.2
		v62.5L1077.6,584.4L1077.6,584.4z"/>
	<path fill="#262626" d="M1342.3,587.7c-23.9,0-43.1-7.7-57.4-23s-21.5-34.8-21.5-58.5V500c0-24.7,6.8-45,20.3-60.9
		c13.6-16,31.7-23.9,54.6-23.8c22.4,0,39.8,6.8,52.2,20.3c12.4,13.5,18.6,31.8,18.6,54.8v24.4h-99.2l-0.3,0.9c0.8,11,4.5,20,11,27
		c6.5,7.1,15.3,10.6,26.5,10.6c9.9,0,18.2-1,24.7-3s13.7-5.1,21.5-9.4l12.1,27.6c-6.9,5.4-15.7,10-26.6,13.7
		C1367.9,585.8,1355.7,587.7,1342.3,587.7z M1338.3,449.8c-8.3,0-14.8,3.2-19.6,9.5c-4.8,6.3-7.8,14.7-8.9,25l0.5,0.8h54.9v-4
		c0-9.5-2.2-17.1-6.7-22.8C1354.1,452.7,1347.3,449.8,1338.3,449.8z"/>
	<path fill="#262626" d="M1536,584.4c-1.2-2.8-2.3-5.6-3.2-8.5c-0.9-2.9-1.6-5.9-2.1-8.8c-5.3,6.1-11.8,11.1-19.4,14.9
		c-7.6,3.8-16.3,5.7-26.2,5.7c-16.3,0-29.2-4.4-38.8-13.3c-9.6-8.8-14.4-20.9-14.4-36.1c0-15.6,6.2-27.6,18.7-36.1
		s30.8-12.7,54.9-12.7h22.9v-16.3c0-8-2.3-14.2-6.9-18.6s-11.4-6.6-20.4-6.6c-5.1,0-9.7,0.6-13.7,1.8c-4,1.2-7.2,2.6-9.7,4.2
		l-2.9,17.8H1441l0.2-36.8c8.2-5.5,17.6-10.2,28.2-14s22.1-5.7,34.6-5.7c20.6,0,37.3,5,50.1,15.1c12.8,10.1,19.3,24.4,19.3,43.1
		v68.6c0,2.6,0,5,0.1,7.2c0.1,2.3,0.2,4.4,0.5,6.4l13.7,1.8v26.9L1536,584.4L1536,584.4z M1497.2,554.5c6.8,0,12.9-1.5,18.4-4.4
		s9.8-6.6,12.9-11v-25.3h-22.9c-9.5,0-16.7,2.2-21.6,6.7c-4.9,4.4-7.4,9.8-7.4,16c0,5.6,1.8,10,5.4,13.2
		C1485.7,552.9,1490.7,554.5,1497.2,554.5z"/>
	<path fill="#262626" d="M1606.3,557.6l21.5-4.6V450l-23.8-4.6v-27h65.5l2,24.3c3.9-8.6,8.9-15.3,15-20.1c6.1-4.8,13.2-7.2,21.3-7.2
		c2.4,0,4.8,0.2,7.4,0.5c2.6,0.4,4.8,0.8,6.5,1.3l-4.8,40.8l-18.4-0.5c-6.6,0-12,1.3-16.3,3.8c-4.3,2.6-7.6,6.2-9.8,10.9V553
		l21.5,4.6v26.9h-87.8v-26.9H1606.3z"/>
	<path fill="#262626" d="M1732.8,557.6l21.5-4.6V450l-23.8-4.6v-27h65.5l2,23.8c5.5-8.5,12.3-15.1,20.4-19.8
		c8.1-4.7,17.1-7.1,27.2-7.1c16.8,0,29.9,5.3,39.3,15.8s14.1,27.1,14.1,49.6V553l21.5,4.6v26.9h-85.6v-26.9l19.2-4.6v-72.1
		c0-11.1-2.3-19.1-6.8-23.7c-4.5-4.7-11.3-7-20.4-7c-5.9,0-11.3,1.2-16,3.6s-8.7,5.8-11.8,10.2v89l18.1,4.6v26.9h-84.4L1732.8,557.6
		L1732.8,557.6z"/>
	<g>
		<polygon fill="#262626" points="190.4,563.1 190.4,457.8 76.3,510.4 		"/>
		<path fill="#262626" d="M349.8,420.6H232.5v-72.3c-12.1-2.3-24.6-3.6-37.3-3.6C87.1,344.7-0.5,432.3-0.5,540.4S87.1,736,195.1,736
			c108.1,0,195.7-87.6,195.7-195.7C390.8,495.2,375.5,453.7,349.8,420.6z M282.2,568c0,38.1-30.9,69.1-69.1,69.1h-42.7
			c-38.1,0-69.1-30.9-69.1-69.1v-20l90.4,41.7l90.5-41.7V568z M330.8,606.5c-5.7,0-10.4-4.7-10.4-10.4c0-4.5,2.9-8.3,6.8-9.7v-73.2
			l-135.5,62.4L49.1,509.9l142.6-66.2l142.6,66.2v76.5c4,1.5,6.8,5.2,6.8,9.7C341.2,601.8,336.5,606.5,330.8,606.5z"/>
	</g>
	<g>
		<path fill="#00BCD4" d="M387.6,354.2c1.2-1.1,1.9-2.7,1.9-4.7c0-2.2-0.7-3.9-2.1-5s-3.4-1.7-6.1-1.7h-7.9V356h9.4
			C384.7,355.9,386.3,355.3,387.6,354.2z"/>
		<path fill="#00BCD4" d="M383.8,360.4h-10.6v15.1h9.7c2.6,0,4.6-0.6,6-1.9s2.1-3.1,2.1-5.4c0-2.4-0.6-4.4-1.8-5.7
			C388.1,361.1,386.3,360.4,383.8,360.4z"/>
		<path fill="#00BCD4" d="M253.8,319.6v79.6H417v-79.6H253.8z M314.8,341.9l-4.7,0.8v32.8l4.7,0.8v3.6h-14.9v-3.6l4.7-0.8v-14h-20.2
			v14l4.7,0.8v3.6H274v-3.6l4.7-0.8v-32.8l-4.7-0.8v-3.6h15v3.6l-4.7,0.8v14.4h20.2v-14.4l-4.7-0.8v-3.6h4.7h5.6h4.7L314.8,341.9
			L314.8,341.9z M359.3,341.9l-4.7,0.8v23.8c0,4.5-1.5,8-4.4,10.4s-6.8,3.6-11.5,3.6c-4.6,0-8.3-1.2-11.1-3.6
			c-2.8-2.4-4.3-5.9-4.3-10.4v-23.8l-4.7-0.8v-3.6h4.7h10.3v3.6l-4.7,0.8v23.8c0,3.1,0.9,5.5,2.7,7.2c1.8,1.6,4.2,2.4,7.1,2.4
			c3.1,0,5.6-0.8,7.5-2.4s2.8-4,2.8-7.2v-23.8l-4.7-0.8v-3.6h10.3h4.7L359.3,341.9L359.3,341.9z M393,376.9c-2.5,2-5.8,3-10.1,3h-20
			v-3.6l4.7-0.8v-32.8l-4.7-0.8v-3.6h4.7h13.6c4.3,0,7.7,0.9,10.2,2.8c2.4,1.9,3.7,4.7,3.7,8.4c0,1.9-0.6,3.5-1.8,5
			c-1.2,1.5-2.7,2.5-4.6,3.2c2.5,0.5,4.5,1.8,5.9,3.7c1.4,1.9,2.2,4.2,2.2,6.7C396.7,372,395.5,374.9,393,376.9z"/>
	</g>
	<g>
		<path fill="#262626" d="M497.5,737.6v-6.9l8.9-1.5v-62.9l-8.9-1.5v-7h8.9h10.8h8.9v7l-8.9,1.5v62.9H545l0.8-9.2h9.2v17.6
			L497.5,737.6L497.5,737.6z"/>
		<path fill="#262626" d="M641.3,673.6l-0.3-0.1l-25.8,64H608l-25.8-63.9l-0.3,0.1L583,706v23.1l8.9,1.5v6.9h-28.7v-6.9l8.9-1.5
			v-62.9l-8.9-1.5v-7h8.9H586l25.4,64.9h0.3l25.4-64.9H660v7l-8.9,1.5v62.9l8.9,1.5v6.9h-28.7v-6.9l8.9-1.5V706L641.3,673.6z"/>
		<path fill="#262626" d="M725.6,681.3h-8.2l-2-11.4c-1.6-1.4-3.8-2.5-6.6-3.5s-5.9-1.4-9.5-1.4c-5.7,0-10.1,1.2-13.2,3.6
			c-3.1,2.4-4.6,5.6-4.6,9.5c0,3.5,1.6,6.4,4.7,8.7c3.1,2.3,8.2,4.4,15.2,6.1c8.4,2.1,14.8,5.2,19.2,9.2c4.4,4.1,6.6,9.1,6.6,15.1
			c0,6.4-2.6,11.6-7.9,15.5c-5.2,3.9-12.1,5.9-20.6,5.9c-6.1,0-11.6-1-16.4-3c-4.8-2-8.7-4.6-11.7-7.9V713h8.1l2.1,11.5
			c2.1,1.7,4.6,3.1,7.5,4.2c2.9,1.1,6.3,1.6,10.4,1.6c5.4,0,9.8-1.2,12.9-3.5c3.2-2.3,4.7-5.4,4.7-9.4c0-3.7-1.4-6.7-4.1-9.2
			c-2.7-2.5-7.6-4.5-14.5-6.2c-8.4-2-15-5-19.8-8.9s-7.1-8.8-7.1-14.7c0-6.3,2.6-11.5,8-15.6c5.3-4.1,12.2-6.2,20.7-6.2
			c5.6,0,10.7,1,15.3,2.9s8.3,4.3,11.1,7v14.8H725.6z"/>
		<path fill="#262626" d="M764.2,716.1c0-4.5,1.3-8.4,3.9-11.7c2.6-3.3,6.4-6.7,11.5-10.1c-2.8-3.6-5-6.8-6.4-9.7
			c-1.4-2.8-2.1-5.8-2.1-8.7c0-6.2,1.8-10.9,5.3-14.3s8.5-5,14.7-5c5.8,0,10.5,1.7,14.1,5s5.4,7.3,5.4,12c0,3.6-1,6.7-2.9,9.3
			s-4.8,5.3-8.5,8l-6,4.4l18.6,22.4c1.5-2.4,2.7-5,3.5-7.9s1.3-5.9,1.3-9.2h9.6c0,4.8-0.7,9.2-2.1,13.3c-1.4,4.1-3.5,7.8-6.2,11
			l10.1,12.3l-0.1,0.3h-12.6l-4.7-5.6c-2.9,2.2-6.2,3.9-9.7,5c-3.5,1.2-7.2,1.7-11,1.7c-7.9,0-14.2-2.1-18.9-6.3
			C766.6,728.2,764.2,722.8,764.2,716.1z M790.2,730.3c2.6,0,5.2-0.4,7.8-1.3c2.6-0.9,5-2.2,7.2-3.9l-19.8-23.9l-2.2,1.6
			c-3.3,2.5-5.5,4.9-6.6,7.1c-1.1,2.3-1.6,4.3-1.6,6.1c0,4.1,1.3,7.5,3.9,10.2C781.5,729,785.3,730.3,790.2,730.3z M782,675.8
			c0,1.9,0.5,4,1.5,6.1s2.5,4.4,4.4,6.9l7.6-5.2c2.1-1.4,3.5-2.9,4.3-4.5s1.1-3.4,1.1-5.4c0-2.2-0.9-4.2-2.7-5.9s-4.1-2.6-6.9-2.6
			c-3,0-5.2,1-6.9,3.1C782.8,670.3,782,672.8,782,675.8z"/>
		<path fill="#262626" d="M862.7,737.6v-6.9l8.9-1.5v-62.9l-8.9-1.5v-7H924V677h-9.3l-0.9-10.7h-31.4v25.8h30.5v8.5h-30.5v28.6h32.1
			l0.9-10.7h9.2v19.1L862.7,737.6L862.7,737.6z"/>
		<path fill="#262626" d="M974.2,730.5c-1.9,2.7-4.3,4.8-7.1,6.1c-2.8,1.4-6,2.1-9.7,2.1c-7.2,0-12.9-2.6-17-7.9
			c-4.1-5.2-6.1-12.1-6.1-20.7V709c0-9.5,2-17.2,6.1-23.1s9.8-8.8,17.1-8.8c3.5,0,6.6,0.7,9.3,1.9c2.7,1.3,5,3.2,6.9,5.6v-24.2
			l-8.9-1.5v-7h8.9h10.8V729l8.9,1.5v6.9h-18.3L974.2,730.5z M945.1,710.2c0,6,1.2,10.7,3.7,14.4c2.5,3.6,6.2,5.4,11.4,5.4
			c3.2,0,5.9-0.7,8.1-2.2c2.2-1.5,4-3.5,5.4-6.2V694c-1.4-2.5-3.2-4.5-5.4-5.9c-2.2-1.5-4.9-2.2-8-2.2c-5.2,0-9,2.1-11.4,6.4
			c-2.5,4.3-3.7,9.8-3.7,16.7L945.1,710.2L945.1,710.2z"/>
		<path fill="#262626" d="M1044.1,728.8c-1.9,3.2-4.3,5.6-7.2,7.3c-2.9,1.7-6.3,2.6-10.2,2.6c-6.4,0-11.5-2.1-15.1-6.2
			c-3.6-4.1-5.4-10.6-5.4-19.3v-26.5l-6.8-1.5v-7h6.8h10.8v35.1c0,6.3,0.9,10.7,2.8,13.1c1.9,2.4,4.8,3.6,8.7,3.6
			c3.8,0,7-0.8,9.5-2.3c2.5-1.6,4.4-3.8,5.7-6.6v-34.3l-7.9-1.5v-7h7.9h10.8v50.9l6.8,1.5v6.9h-16.5L1044.1,728.8z"/>
		<path fill="#262626" d="M1096.5,730.3c3.6,0,6.7-1.1,9.5-3.3c2.7-2.2,4.1-4.9,4.1-8.1h9.7l0.1,0.3c0.2,5.1-2.1,9.7-6.8,13.6
			c-4.7,4-10.2,6-16.5,6c-8.6,0-15.2-2.8-19.8-8.4c-4.5-5.6-6.8-12.7-6.8-21.2v-2.3c0-8.4,2.3-15.5,6.9-21.1s11.2-8.5,19.7-8.5
			c4.8,0,9,0.8,12.8,2.4c3.8,1.6,6.9,3.7,9.4,6.5l0.5,13.2h-8.6l-2.4-9.3c-1.3-1.2-2.9-2.2-4.9-3s-4.3-1.2-6.8-1.2
			c-5.7,0-9.7,2-12.1,6.1s-3.6,9.1-3.6,15v2.3c0,6.1,1.2,11.1,3.6,15.2C1086.7,728.3,1090.8,730.3,1096.5,730.3z"/>
		<path fill="#262626" d="M1169.1,737.6c-0.3-1.6-0.6-3.1-0.8-4.3c-0.2-1.3-0.3-2.6-0.4-3.8c-2.1,2.7-4.7,4.9-7.8,6.7
			c-3.1,1.8-6.5,2.7-10,2.7c-6.2,0-10.9-1.5-14.1-4.5s-4.8-7.3-4.8-12.8c0-5.6,2.3-10,6.8-13c4.5-3.1,10.8-4.6,18.7-4.6h11.1v-6.9
			c0-3.5-1.1-6.2-3.3-8.3c-2.2-2-5.2-3-9.2-3c-2.7,0-5.1,0.3-7.2,1s-3.7,1.6-5,2.9l-1.1,6.3h-8.3v-11.5c2.7-2.2,6-3.9,9.8-5.2
			s8-1.9,12.5-1.9c6.7,0,12.2,1.7,16.3,5.2c4.2,3.4,6.3,8.4,6.3,14.7v28.6c0,0.8,0,1.5,0,2.2s0.1,1.5,0.1,2.2l4.4,0.6v6.9h-14V737.6
			z M1151.7,729.7c3.6,0,6.9-0.9,9.8-2.6c3-1.7,5.1-3.8,6.4-6.2v-9.8h-11.5c-4.4,0-7.9,1-10.5,3.1c-2.6,2-3.9,4.5-3.9,7.5
			c0,2.6,0.8,4.6,2.4,6C1146,729,1148.5,729.7,1151.7,729.7z"/>
		<path fill="#262626" d="M1211.1,663.9v14.3h11.2v8h-11.2v36c0,2.8,0.6,4.7,1.7,5.9c1.2,1.1,2.7,1.7,4.6,1.7c1,0,2-0.1,3.2-0.2
			c1.2-0.2,2.2-0.3,3-0.5l1.5,7.4c-1,0.7-2.5,1.2-4.5,1.6c-2,0.4-3.9,0.6-5.9,0.6c-4.4,0-7.9-1.3-10.5-4c-2.6-2.6-3.9-6.8-3.9-12.5
			v-36h-9.4v-8h9.4v-14.3H1211.1z"/>
		<path fill="#262626" d="M1233.4,730.7l8.9-1.5v-42.4l-8.9-1.5v-7h19.7v50.9l8.9,1.5v6.9h-28.7L1233.4,730.7L1233.4,730.7z
			 M1253.1,663.1h-10.8v-11h10.8V663.1z"/>
		<path fill="#262626" d="M1270.3,707.4c0-8.8,2.4-16,7.1-21.7c4.8-5.7,11.2-8.5,19.4-8.5c8.2,0,14.7,2.8,19.4,8.5
			c4.8,5.7,7.2,12.9,7.2,21.7v1.2c0,8.8-2.4,16.1-7.1,21.7c-4.8,5.6-11.2,8.4-19.4,8.4c-8.2,0-14.7-2.8-19.5-8.5
			c-4.8-5.6-7.1-12.9-7.1-21.7V707.4z M1281.1,708.6c0,6.3,1.3,11.5,4,15.6c2.6,4.1,6.6,6.1,11.8,6.1c5.1,0,9-2,11.7-6.1
			s4-9.3,4-15.6v-1.2c0-6.2-1.3-11.4-4-15.5s-6.6-6.2-11.8-6.2s-9.1,2.1-11.7,6.2c-2.6,4.1-3.9,9.3-3.9,15.5L1281.1,708.6
			L1281.1,708.6z"/>
		<path fill="#262626" d="M1331.7,730.7l8.9-1.5v-42.4l-8.9-1.5v-7h18.6l0.8,8.8c2-3.1,4.4-5.6,7.4-7.3s6.4-2.6,10.2-2.6
			c6.4,0,11.4,1.9,14.9,5.6c3.5,3.7,5.3,9.5,5.3,17.4v29l8.9,1.5v6.9H1369v-6.9l8.9-1.5v-28.8c0-5.2-1-8.9-3.1-11.1
			c-2.1-2.2-5.2-3.3-9.5-3.3c-3.1,0-5.9,0.8-8.3,2.2c-2.4,1.5-4.3,3.5-5.7,6.1v34.8l8.9,1.5v6.9h-28.7v-6.8H1331.7z"/>
		<path fill="#262626" d="M1497,657.7v17.7h-9.2l-0.8-9.2h-17.7v62.9l8.9,1.5v6.9h-28.7v-6.9l8.9-1.5v-62.9h-17.8l-0.8,9.2h-9.3
			v-17.7H1497z"/>
		<path fill="#262626" d="M1525.6,738.7c-8.3,0-14.8-2.8-19.7-8.3c-4.9-5.5-7.3-12.6-7.3-21.4v-2.4c0-8.4,2.5-15.5,7.5-21.1
			s11-8.4,17.9-8.4c8,0,14,2.4,18.1,7.2s6.2,11.3,6.2,19.3v6.7h-38.5l-0.2,0.3c0.1,5.7,1.6,10.4,4.3,14.1c2.8,3.7,6.7,5.5,11.7,5.5
			c3.7,0,6.9-0.5,9.6-1.6c2.8-1,5.1-2.5,7.2-4.3l4.2,7c-2.1,2-4.9,3.8-8.4,5.2C1534.7,738,1530.5,738.7,1525.6,738.7z M1523.9,685.7
			c-3.6,0-6.7,1.5-9.3,4.6c-2.6,3.1-4.1,6.9-4.7,11.5l0.1,0.3h27.4v-1.4c0-4.2-1.1-7.8-3.4-10.6
			C1531.7,687.1,1528.4,685.7,1523.9,685.7z"/>
		<path fill="#262626" d="M1556.7,730.7l8.9-1.5v-42.4l-8.9-1.5v-7h18.6l0.7,7.7c1.9-2.8,4.3-5,7.3-6.5s6.5-2.3,10.4-2.3
			s7.3,0.9,10.2,2.7c2.8,1.8,5,4.6,6.4,8.2c1.9-3.4,4.3-6,7.4-8s6.7-3,10.7-3c6.1,0,10.9,2.1,14.4,6.2c3.5,4.2,5.3,10.4,5.3,18.7v27
			l8.9,1.5v6.9h-28.7v-6.9l8.9-1.5v-27c0-5.8-1-10-3-12.4s-5-3.6-8.9-3.6c-3.8,0-6.8,1.3-9.1,4c-2.3,2.6-3.6,6-4,10v29.2l8.9,1.5
			v6.9h-28.7v-6.9l8.9-1.5V702c0-5.6-1-9.6-3.1-12.2c-2.1-2.6-5.1-3.9-9-3.9c-3.3,0-6,0.7-8.1,2c-2.1,1.4-3.7,3.3-4.9,5.7v35.5
			l8.9,1.5v6.9h-28.7v-6.8H1556.7z"/>
		<path fill="#262626" d="M1663.6,753.4l8.9-1.5v-65.1l-8.9-1.5v-7h18.2l1,7.2c2-2.7,4.4-4.8,7.2-6.2c2.8-1.4,6.1-2.1,9.8-2.1
			c7.3,0,13.1,2.9,17.1,8.7c4.1,5.8,6.1,13.5,6.1,23.1v1.2c0,8.6-2,15.5-6.1,20.7s-9.7,7.9-16.9,7.9c-3.7,0-6.9-0.6-9.6-1.8
			s-5.1-3-7-5.5V752l8.9,1.5v7h-28.7V753.4z M1712.3,709c0-6.8-1.3-12.3-3.9-16.6s-6.5-6.5-11.7-6.5c-3.1,0-5.7,0.7-7.9,2.1
			c-2.2,1.4-4,3.3-5.3,5.7v28.9c1.4,2.5,3.1,4.3,5.3,5.7c2.2,1.3,4.9,2,8,2c5.1,0,9-1.9,11.6-5.6c2.6-3.7,3.9-8.6,3.9-14.5V709z"/>
		<path fill="#262626" d="M1730.9,659v-7h19.7v77.1l8.9,1.5v6.9h-28.7v-6.9l8.9-1.5v-68.6L1730.9,659z"/>
		<path fill="#262626" d="M1806.5,737.6c-0.3-1.6-0.6-3.1-0.8-4.3c-0.2-1.3-0.3-2.6-0.4-3.8c-2.1,2.7-4.7,4.9-7.8,6.7
			c-3.1,1.8-6.5,2.7-10,2.7c-6.2,0-10.9-1.5-14.1-4.5s-4.8-7.3-4.8-12.8c0-5.6,2.3-10,6.8-13c4.5-3.1,10.8-4.6,18.7-4.6h11.1v-6.9
			c0-3.5-1.1-6.2-3.3-8.3c-2.2-2-5.2-3-9.2-3c-2.7,0-5.1,0.3-7.2,1s-3.7,1.6-5,2.9l-1.1,6.3h-8.3v-11.5c2.7-2.2,6-3.9,9.8-5.2
			s8-1.9,12.5-1.9c6.7,0,12.2,1.7,16.3,5.2c4.2,3.4,6.3,8.4,6.3,14.7v28.6c0,0.8,0,1.5,0,2.2s0.1,1.5,0.1,2.2l4.4,0.6v6.9h-14V737.6
			z M1789.1,729.7c3.6,0,6.9-0.9,9.8-2.6c3-1.7,5.1-3.8,6.4-6.2v-9.8h-11.5c-4.4,0-7.9,1-10.5,3.1c-2.6,2-3.9,4.5-3.9,7.5
			c0,2.6,0.8,4.6,2.4,6S1785.9,729.7,1789.1,729.7z"/>
		<path fill="#262626" d="M1848.5,663.9v14.3h11.2v8h-11.2v36c0,2.8,0.6,4.7,1.7,5.9c1.2,1.1,2.7,1.7,4.6,1.7c1,0,2-0.1,3.2-0.2
			c1.2-0.2,2.2-0.3,3-0.5l1.5,7.4c-1,0.7-2.5,1.2-4.5,1.6c-2,0.4-3.9,0.6-5.9,0.6c-4.4,0-7.9-1.3-10.5-4c-2.6-2.6-3.9-6.8-3.9-12.5
			v-36h-9.4v-8h9.4v-14.3H1848.5z"/>
		<path fill="#262626" d="M1897.9,738.7c-8.3,0-14.8-2.8-19.7-8.3c-4.9-5.5-7.3-12.6-7.3-21.4v-2.4c0-8.4,2.5-15.5,7.5-21.1
			s11-8.4,17.9-8.4c8,0,14,2.4,18.1,7.2s6.2,11.3,6.2,19.3v6.7H1882l-0.2,0.3c0.1,5.7,1.6,10.4,4.3,14.1c2.8,3.7,6.7,5.5,11.7,5.5
			c3.7,0,6.9-0.5,9.6-1.6c2.8-1,5.1-2.5,7.2-4.3l4.2,7c-2.1,2-4.9,3.8-8.4,5.2C1907,738,1902.8,738.7,1897.9,738.7z M1896.2,685.7
			c-3.6,0-6.7,1.5-9.3,4.6c-2.6,3.1-4.1,6.9-4.7,11.5l0.1,0.3h27.4v-1.4c0-4.2-1.1-7.8-3.4-10.6
			C1904,687.1,1900.7,685.7,1896.2,685.7z"/>
	</g>
</g>
</svg>
