<?xml version="1.0" encoding="utf-8"?>
<!-- Generator: Adobe Illustrator 18.0.0, SVG Export Plug-In . SVG Version: 6.00 Build 0)  -->
<!DOCTYPE svg PUBLIC "-//W3C//DTD SVG 1.1//EN" "http://www.w3.org/Graphics/SVG/1.1/DTD/svg11.dtd">
<svg version="1.1" id="Layer_1" xmlns="http://www.w3.org/2000/svg" xmlns:xlink="http://www.w3.org/1999/xlink" x="0px" y="0px"
	 viewBox="0 319.7 1920.1 440.6" enable-background="new 0 319.7 1920.1 440.6" xml:space="preserve">
<g>
	<path fill="#FF6800" d="M642,486.2h-75.6V550h72.1l2-26.7h34.1v61.1H497.8v-26.8l23.8-4.6V392.7l-23.8-4.6v-27h23.8h152.6v61.2
		h-34.4l-2-26.7h-71.5v56.1H642V486.2z"/>
	<path fill="#FF6800" d="M804.6,564.2c-5.2,7.7-11.4,13.5-18.5,17.5s-15.2,6-24.3,6c-20.5,0-36.3-7.5-47.6-22.4s-17-34.7-17-59.2
		v-3.2c0-26.2,5.7-47.3,17-63.4c11.4-16.1,27.3-24.1,47.9-24.1c8.3,0,15.7,1.8,22.4,5.4c6.6,3.6,12.5,8.8,17.5,15.4v-59.5l-23.9-4.6
		v-27H802h44.8V553l21.5,4.6v26.8H808L804.6,564.2z M742,506c0,14.5,2.4,26,7.3,34.3c4.9,8.3,12.8,12.5,23.9,12.5
		c6.5,0,12.2-1.3,17-4s8.7-6.5,11.8-11.5v-70.4c-3.1-5.3-7-9.4-11.7-12.3c-4.8-2.9-10.4-4.4-16.8-4.4c-10.9,0-18.9,4.9-23.9,14.6
		s-7.5,22.4-7.5,38L742,506L742,506z"/>
	<path fill="#FF6800" d="M998.6,563.4c-5.3,7.8-11.9,13.8-19.7,17.9c-7.8,4.2-16.8,6.3-26.8,6.3c-17.5,0-31.2-5.6-41.1-16.8
		c-9.9-11.2-14.9-28.6-14.9-52.2V450l-18.3-4.6v-27h18.3H941v100.5c0,12.1,2,20.7,6.1,26c4,5.3,10,7.9,18,7.9
		c7.1,0,13.2-1.2,18.3-3.4c5.2-2.3,9.4-5.6,12.7-9.9V450l-19.6-4.6v-27H996h44.8V553l20.1,4.6v26.8h-59.4L998.6,563.4z"/>
	<path fill="#FFFFFF" d="M1077.5,584.4v-26.8l23.8-4.6V392.7l-23.8-4.6v-27h23.8h44.8h23.9v27l-23.9,4.6v157.4h63l2.1-28.1h34.2
		v62.4H1077.5z"/>
	<path fill="#FFFFFF" d="M1342.1,587.6c-23.9,0-43.1-7.7-57.4-23s-21.5-34.8-21.5-58.4V500c0-24.6,6.8-44.9,20.3-60.9
		s31.7-23.9,54.5-23.8c22.4,0,39.8,6.7,52.2,20.2c12.4,13.5,18.6,31.8,18.6,54.8v24.4h-99.1l-0.3,0.9c0.8,10.9,4.5,19.9,11,27
		s15.3,10.6,26.5,10.6c9.9,0,18.2-1,24.7-3s13.7-5.1,21.5-9.4l12.1,27.6c-6.9,5.4-15.7,10-26.6,13.7
		C1367.7,585.8,1355.5,587.6,1342.1,587.6z M1338.1,449.9c-8.3,0-14.8,3.2-19.6,9.5c-4.8,6.3-7.8,14.7-8.9,25l0.5,0.8h54.9v-4
		c0-9.5-2.2-17.1-6.7-22.8C1353.9,452.7,1347.1,449.9,1338.1,449.9z"/>
	<path fill="#FFFFFF" d="M1535.7,584.4c-1.2-2.8-2.3-5.6-3.2-8.5c-0.9-2.9-1.6-5.8-2.1-8.8c-5.3,6.1-11.8,11.1-19.4,14.9
		c-7.6,3.8-16.3,5.7-26.2,5.7c-16.3,0-29.2-4.4-38.7-13.3c-9.6-8.8-14.3-20.9-14.3-36.1c0-15.5,6.2-27.6,18.7-36.1
		s30.8-12.7,54.9-12.7h22.9v-16.3c0-8-2.3-14.2-6.9-18.6S1510,448,1501,448c-5.1,0-9.7,0.6-13.7,1.8c-4,1.2-7.2,2.6-9.7,4.2
		l-2.9,17.8H1441l0.2-36.8c8.2-5.5,17.6-10.2,28.1-14c10.6-3.8,22.1-5.7,34.6-5.7c20.6,0,37.3,5,50.1,15.1
		c12.8,10.1,19.3,24.4,19.3,43V542c0,2.6,0,5,0.1,7.2c0.1,2.3,0.2,4.4,0.5,6.4l13.7,1.8v26.8h-51.9V584.4z M1496.9,554.5
		c6.7,0,12.9-1.5,18.4-4.4s9.8-6.6,12.9-11v-25.3h-22.9c-9.5,0-16.7,2.2-21.6,6.7c-4.9,4.4-7.4,9.8-7.4,16c0,5.6,1.8,10,5.4,13.2
		C1485.4,552.9,1490.5,554.5,1496.9,554.5z"/>
	<path fill="#FFFFFF" d="M1606,557.6l21.5-4.6V450l-23.8-4.6v-27h65.5l2,24.2c3.9-8.6,8.9-15.3,15-20.1c6.1-4.8,13.2-7.2,21.3-7.2
		c2.4,0,4.8,0.2,7.4,0.5c2.6,0.4,4.8,0.8,6.5,1.3l-4.8,40.8l-18.4-0.5c-6.5,0-12,1.3-16.3,3.8c-4.3,2.6-7.6,6.2-9.8,10.9V553
		l21.5,4.6v26.8H1606V557.6z"/>
	<path fill="#FFFFFF" d="M1732.4,557.6l21.5-4.6V450l-23.8-4.6v-27h65.5l2,23.8c5.5-8.5,12.3-15.1,20.4-19.8
		c8.1-4.7,17.1-7.1,27.2-7.1c16.8,0,29.9,5.3,39.3,15.8s14.1,27.1,14.1,49.5V553l21.5,4.6v26.8h-85.6v-26.8l19.2-4.6v-72.1
		c0-11.1-2.3-19-6.7-23.7c-4.5-4.7-11.3-7-20.4-7c-5.9,0-11.3,1.2-16,3.6s-8.6,5.8-11.8,10.2v89l18.1,4.6v26.8h-84.4L1732.4,557.6
		L1732.4,557.6z"/>
	<g>
		<polygon fill="#FFFFFF" points="190.8,563 190.8,457.8 76.7,510.4 		"/>
		<path fill="#FFFFFF" d="M350.1,420.6H232.9v-72.2c-12.1-2.3-24.5-3.6-37.3-3.6C87.6,344.8,0,432.4,0,540.4S87.6,736,195.6,736
			s195.6-87.6,195.6-195.6C391.1,495.2,375.8,453.7,350.1,420.6z M282.6,568c0,38.1-30.9,69-69,69h-42.7c-38.1,0-69-30.9-69-69v-20
			l90.4,41.6l90.4-41.6v20H282.6z M331.1,606.5c-5.7,0-10.4-4.6-10.4-10.4c0-4.5,2.9-8.3,6.8-9.7v-73.2l-135.4,62.4L49.6,509.9
			l142.5-66.2l142.5,66.2v76.5c4,1.5,6.8,5.2,6.8,9.7C341.5,601.8,336.8,606.5,331.1,606.5z"/>
	</g>
	<g>
		<path fill="#FF6800" d="M387.9,354.3c1.2-1.1,1.9-2.7,1.9-4.7c0-2.2-0.7-3.9-2.1-5s-3.4-1.7-6.1-1.7h-7.9v13.3h9.4
			C385,356,386.6,355.4,387.9,354.3z"/>
		<path fill="#FF6800" d="M384.1,360.5h-10.6v15.1h9.7c2.6,0,4.6-0.6,6-1.9s2.1-3.1,2.1-5.4c0-2.4-0.6-4.3-1.8-5.7
			C388.4,361.2,386.6,360.5,384.1,360.5z"/>
		<path fill="#FF6800" d="M254.2,319.7v79.6h163.1v-79.6H254.2z M315.1,342.1l-4.6,0.8v32.7l4.6,0.8v3.6h-14.9v-3.6l4.7-0.8v-14
			h-20.2v14l4.7,0.8v3.6h-14.9v-3.6l4.7-0.8v-32.7l-4.7-0.8v-3.6h14.9v3.6l-4.7,0.8v14.4h20.2v-14.4l-4.7-0.8v-3.6h4.7h5.6h4.6
			L315.1,342.1L315.1,342.1z M359.6,342.1l-4.7,0.8v23.8c0,4.5-1.5,8-4.4,10.4s-6.8,3.6-11.5,3.6c-4.6,0-8.3-1.2-11.1-3.6
			c-2.8-2.4-4.3-5.9-4.3-10.4v-23.8l-4.6-0.8v-3.6h4.6h10.3v3.6l-4.7,0.8v23.8c0,3.1,0.9,5.5,2.7,7.2c1.8,1.6,4.2,2.4,7.1,2.4
			c3.1,0,5.6-0.8,7.5-2.4s2.8-4,2.8-7.2v-23.8l-4.7-0.8v-3.6h10.3h4.7L359.6,342.1L359.6,342.1z M393.3,377c-2.5,2-5.8,3-10,3h-20
			v-3.6l4.7-0.8v-32.7l-4.7-0.8v-3.6h4.7h13.6c4.3,0,7.7,0.9,10.2,2.8c2.4,1.9,3.7,4.7,3.7,8.4c0,1.9-0.6,3.5-1.8,5
			c-1.2,1.5-2.7,2.5-4.6,3.2c2.5,0.5,4.5,1.8,5.9,3.7c1.4,1.9,2.2,4.2,2.2,6.7C397,372.1,395.8,375,393.3,377z"/>
	</g>
	<g>
		<path fill="#FFFFFF" d="M497.8,737.5v-6.9l8.9-1.5v-62.9l-8.9-1.5v-7h8.9h10.8h8.9v7l-8.9,1.5V729h27.7l0.8-9.2h9.2v17.6h-57.4
			V737.5z"/>
		<path fill="#FFFFFF" d="M641.5,673.6l-0.3-0.1l-25.8,64h-7.2l-25.8-63.9l-0.3,0.1l1.1,32.3v23l8.9,1.5v6.9h-28.7v-6.9l8.9-1.5
			v-62.9l-8.9-1.5v-7h8.9h13.8l25.4,64.8h0.3l25.4-64.8H660v7l-8.9,1.5V729l8.9,1.5v6.9h-28.7v-6.9l8.9-1.5v-23.1L641.5,673.6z"/>
		<path fill="#FFFFFF" d="M725.7,681.2h-8.2l-2-11.4c-1.6-1.4-3.8-2.5-6.6-3.5s-5.9-1.4-9.5-1.4c-5.7,0-10.1,1.2-13.2,3.6
			c-3.1,2.4-4.6,5.6-4.6,9.5c0,3.5,1.6,6.4,4.7,8.7c3.1,2.3,8.2,4.4,15.2,6.1c8.4,2.1,14.8,5.2,19.2,9.2c4.4,4.1,6.6,9.1,6.6,15.1
			c0,6.4-2.6,11.6-7.9,15.5c-5.2,3.9-12.1,5.9-20.6,5.9c-6.1,0-11.6-1-16.4-3c-4.8-2-8.6-4.6-11.6-7.9v-14.9h8.1l2.1,11.5
			c2.1,1.7,4.6,3.1,7.5,4.2c2.9,1.1,6.3,1.6,10.4,1.6c5.4,0,9.7-1.2,12.9-3.5s4.7-5.4,4.7-9.4c0-3.7-1.4-6.7-4.1-9.2
			c-2.7-2.5-7.6-4.5-14.5-6.2c-8.4-2-15-5-19.8-8.9c-4.7-3.9-7.1-8.8-7.1-14.7c0-6.3,2.6-11.4,7.9-15.6c5.3-4.1,12.2-6.2,20.7-6.2
			c5.6,0,10.7,1,15.3,2.9s8.3,4.2,11,7v15H725.7z"/>
		<path fill="#FFFFFF" d="M764.3,716c0-4.5,1.3-8.4,3.9-11.7c2.6-3.3,6.4-6.7,11.5-10.1c-2.8-3.6-5-6.8-6.4-9.7
			c-1.4-2.8-2.1-5.7-2.1-8.7c0-6.2,1.8-10.9,5.3-14.3c3.6-3.3,8.5-5,14.7-5c5.8,0,10.5,1.7,14.1,5s5.4,7.3,5.4,12
			c0,3.6-1,6.7-2.9,9.3s-4.8,5.3-8.5,8l-6,4.4l18.6,22.4c1.5-2.4,2.7-5,3.5-7.9s1.3-5.9,1.3-9.2h9.6c0,4.8-0.7,9.2-2.1,13.3
			c-1.4,4.1-3.5,7.8-6.2,11l10.1,12.3l-0.1,0.3h-12.6l-4.7-5.6c-2.9,2.2-6.2,3.9-9.7,5c-3.5,1.2-7.2,1.7-11,1.7
			c-7.9,0-14.2-2.1-18.9-6.3S764.3,722.7,764.3,716z M790.3,730.2c2.6,0,5.2-0.4,7.8-1.3c2.6-0.9,5-2.2,7.2-3.9l-19.8-23.8l-2.2,1.6
			c-3.3,2.5-5.5,4.9-6.6,7.1c-1.1,2.3-1.6,4.3-1.6,6.1c0,4.1,1.3,7.5,3.9,10.2C781.6,728.9,785.4,730.2,790.3,730.2z M782.1,675.7
			c0,1.9,0.5,4,1.5,6.1s2.5,4.4,4.4,6.9l7.6-5.2c2.1-1.4,3.5-2.9,4.2-4.5c0.8-1.6,1.1-3.4,1.1-5.4c0-2.2-0.9-4.2-2.7-5.9
			s-4.1-2.6-6.9-2.6c-3,0-5.2,1-6.9,3.1C782.9,670.2,782.1,672.7,782.1,675.7z"/>
		<path fill="#FFFFFF" d="M862.7,737.5v-6.9l8.9-1.5v-62.9l-8.9-1.5v-7H924v19.2h-9.3l-0.9-10.7h-31.4V692H913v8.5h-30.5V729h32.1
			l0.9-10.7h9.2v19.1h-62V737.5z"/>
		<path fill="#FFFFFF" d="M974.2,730.4c-1.9,2.7-4.3,4.7-7.1,6.1c-2.8,1.4-6,2.1-9.7,2.1c-7.2,0-12.9-2.6-17-7.9
			c-4.1-5.2-6.1-12.1-6.1-20.7v-1.2c0-9.5,2-17.2,6.1-23.1c4.1-5.8,9.8-8.8,17.1-8.8c3.5,0,6.6,0.7,9.3,1.9c2.7,1.3,5,3.2,6.9,5.6
			v-24.2l-8.9-1.5v-7h8.9h10.8V729l8.9,1.5v6.9h-18.3L974.2,730.4z M945.1,710.1c0,6,1.2,10.7,3.7,14.4c2.4,3.6,6.2,5.4,11.3,5.4
			c3.2,0,5.9-0.7,8.1-2.2c2.2-1.5,4-3.5,5.4-6.2V694c-1.4-2.5-3.2-4.5-5.4-5.9c-2.2-1.5-4.9-2.2-8-2.2c-5.2,0-9,2.1-11.4,6.4
			c-2.5,4.3-3.7,9.8-3.7,16.7L945.1,710.1L945.1,710.1z"/>
		<path fill="#FFFFFF" d="M1044,728.7c-1.9,3.2-4.3,5.6-7.2,7.3c-2.9,1.7-6.3,2.6-10.2,2.6c-6.4,0-11.5-2.1-15.1-6.2
			c-3.6-4.1-5.4-10.6-5.4-19.3v-26.5l-6.8-1.5v-7h6.8h10.8v35.1c0,6.3,0.9,10.7,2.8,13s4.8,3.6,8.7,3.6c3.8,0,7-0.8,9.5-2.3
			c2.5-1.6,4.4-3.8,5.7-6.6v-34.3l-7.9-1.5v-7h7.9h10.8V729l6.8,1.5v6.9h-16.5L1044,728.7z"/>
		<path fill="#FFFFFF" d="M1096.4,730.2c3.6,0,6.7-1.1,9.5-3.3s4.1-4.9,4.1-8.1h9.7l0.1,0.3c0.2,5.1-2.1,9.7-6.8,13.6
			c-4.7,4-10.2,5.9-16.5,5.9c-8.6,0-15.2-2.8-19.8-8.4c-4.5-5.6-6.8-12.7-6.8-21.2v-2.3c0-8.4,2.3-15.5,6.9-21.1s11.1-8.5,19.7-8.5
			c4.7,0,9,0.8,12.8,2.4c3.8,1.6,6.9,3.7,9.4,6.5l0.5,13.2h-8.6l-2.4-9.3c-1.3-1.2-2.9-2.2-4.9-3s-4.3-1.2-6.8-1.2
			c-5.7,0-9.7,2-12.1,6.1s-3.6,9.1-3.6,15v2.3c0,6.1,1.2,11.1,3.6,15.2C1086.7,728.2,1090.7,730.2,1096.4,730.2z"/>
		<path fill="#FFFFFF" d="M1169,737.5c-0.3-1.6-0.6-3.1-0.8-4.3c-0.2-1.3-0.3-2.6-0.4-3.8c-2.1,2.7-4.7,4.9-7.8,6.7
			c-3.1,1.8-6.5,2.7-10,2.7c-6.2,0-10.9-1.5-14.1-4.5s-4.8-7.3-4.8-12.7c0-5.6,2.3-10,6.8-13c4.5-3.1,10.8-4.6,18.7-4.6h11.1v-6.9
			c0-3.5-1.1-6.2-3.3-8.2c-2.2-2-5.2-3-9.2-3c-2.7,0-5.1,0.3-7.1,1c-2.1,0.7-3.7,1.6-5,2.9l-1.1,6.3h-8.3v-11.5
			c2.7-2.2,6-3.9,9.8-5.2s8-1.9,12.5-1.9c6.7,0,12.2,1.7,16.3,5.2c4.2,3.4,6.3,8.4,6.3,14.7V726c0,0.8,0,1.5,0,2.2s0.1,1.5,0.1,2.2
			l4.4,0.6v6.9H1169V737.5z M1151.6,729.6c3.6,0,6.9-0.9,9.8-2.6c3-1.7,5.1-3.8,6.4-6.2V711h-11.5c-4.4,0-7.9,1-10.5,3.1
			c-2.6,2-3.9,4.5-3.9,7.5c0,2.6,0.8,4.6,2.4,5.9C1145.9,728.9,1148.4,729.6,1151.6,729.6z"/>
		<path fill="#FFFFFF" d="M1211,663.9v14.3h11.2v8H1211v36c0,2.8,0.6,4.7,1.7,5.9c1.2,1.1,2.7,1.7,4.6,1.7c1,0,2-0.1,3.2-0.2
			c1.2-0.2,2.2-0.3,3-0.5l1.5,7.4c-1,0.7-2.5,1.2-4.5,1.6c-2,0.4-3.9,0.6-5.9,0.6c-4.4,0-7.9-1.3-10.5-4c-2.6-2.6-3.9-6.8-3.9-12.5
			v-36h-9.4v-8h9.4v-14.3H1211z"/>
		<path fill="#FFFFFF" d="M1233.2,730.6l8.9-1.5v-42.4l-8.9-1.5v-7h19.7V729l8.9,1.5v6.9h-28.7L1233.2,730.6L1233.2,730.6z
			 M1253,663h-10.8v-11h10.8V663z"/>
		<path fill="#FFFFFF" d="M1270.2,707.3c0-8.8,2.4-16,7.1-21.7s11.2-8.5,19.3-8.5c8.2,0,14.7,2.8,19.4,8.5
			c4.8,5.7,7.2,12.9,7.2,21.7v1.2c0,8.8-2.4,16.1-7.1,21.7c-4.8,5.6-11.2,8.4-19.4,8.4c-8.2,0-14.7-2.8-19.5-8.5
			c-4.7-5.6-7.1-12.9-7.1-21.7L1270.2,707.3L1270.2,707.3z M1281,708.5c0,6.3,1.3,11.5,4,15.6c2.6,4.1,6.6,6.1,11.8,6.1
			c5.1,0,9-2,11.7-6.1s4-9.3,4-15.6v-1.2c0-6.2-1.3-11.4-4-15.5s-6.6-6.2-11.8-6.2s-9.1,2.1-11.7,6.2c-2.6,4.1-3.9,9.3-3.9,15.5
			L1281,708.5L1281,708.5z"/>
		<path fill="#FFFFFF" d="M1331.5,730.6l8.9-1.5v-42.4l-8.9-1.5v-7h18.6l0.8,8.8c2-3.1,4.4-5.6,7.4-7.3s6.4-2.6,10.2-2.6
			c6.4,0,11.3,1.9,14.9,5.6s5.3,9.5,5.3,17.3v29l8.9,1.5v6.9h-28.7v-6.9l8.9-1.5v-28.8c0-5.2-1-8.9-3.1-11.1
			c-2.1-2.2-5.2-3.3-9.5-3.3c-3.1,0-5.9,0.8-8.2,2.2c-2.4,1.5-4.3,3.5-5.7,6.1V729l8.9,1.5v6.9h-28.7L1331.5,730.6L1331.5,730.6z"/>
		<path fill="#FFFFFF" d="M1496.7,657.7v17.6h-9.2l-0.8-9.2H1469V729l8.9,1.5v6.9h-28.7v-6.9l8.9-1.5v-62.9h-17.8l-0.8,9.2h-9.3
			v-17.6H1496.7z"/>
		<path fill="#FFFFFF" d="M1525.3,738.6c-8.3,0-14.8-2.8-19.7-8.3c-4.9-5.5-7.3-12.6-7.3-21.4v-2.4c0-8.4,2.5-15.5,7.5-21.1
			s11-8.4,17.8-8.4c8,0,14,2.4,18.1,7.2s6.2,11.3,6.2,19.3v6.7h-38.5l-0.2,0.3c0.1,5.7,1.6,10.4,4.3,14.1c2.8,3.7,6.7,5.5,11.7,5.5
			c3.7,0,6.9-0.5,9.6-1.6c2.8-1,5.1-2.5,7.1-4.3l4.2,7c-2.1,2-4.9,3.8-8.4,5.2C1534.3,737.9,1530.2,738.6,1525.3,738.6z
			 M1523.6,685.6c-3.6,0-6.7,1.5-9.3,4.6c-2.6,3.1-4.1,6.9-4.7,11.5l0.1,0.3h27.3v-1.4c0-4.2-1.1-7.8-3.4-10.6
			C1531.4,687,1528.1,685.6,1523.6,685.6z"/>
		<path fill="#FFFFFF" d="M1556.4,730.6l8.9-1.5v-42.4l-8.9-1.5v-7h18.6l0.7,7.7c1.9-2.8,4.3-5,7.3-6.5s6.5-2.3,10.4-2.3
			s7.3,0.9,10.2,2.7c2.8,1.8,5,4.6,6.4,8.2c1.9-3.4,4.3-6,7.4-8s6.6-3,10.7-3c6.1,0,10.9,2.1,14.4,6.2c3.5,4.1,5.3,10.4,5.3,18.7v27
			l8.9,1.5v6.9H1628v-6.9l8.9-1.5v-27.1c0-5.8-1-10-3-12.4s-5-3.6-8.9-3.6c-3.8,0-6.8,1.3-9.1,4c-2.3,2.6-3.6,6-4,10V729l8.9,1.5
			v6.9h-28.7v-6.9l8.9-1.5v-27.1c0-5.5-1-9.6-3.1-12.2c-2.1-2.6-5.1-3.9-9-3.9c-3.3,0-6,0.7-8.1,2c-2.1,1.4-3.7,3.3-4.9,5.7V729
			l8.9,1.5v6.9h-28.7v-6.8H1556.4z"/>
		<path fill="#FFFFFF" d="M1663.3,753.3l8.9-1.5v-65.1l-8.9-1.5v-7h18.2l1,7.2c2-2.7,4.4-4.8,7.2-6.2c2.8-1.4,6.1-2.1,9.8-2.1
			c7.3,0,13.1,2.9,17.1,8.7c4.1,5.8,6.1,13.5,6.1,23.1v1.2c0,8.6-2,15.4-6.1,20.7c-4.1,5.2-9.7,7.9-16.9,7.9c-3.7,0-6.9-0.6-9.6-1.8
			s-5.1-3-7-5.5v20.4l8.9,1.5v7h-28.7V753.3z M1711.9,708.9c0-6.8-1.3-12.3-3.9-16.6s-6.5-6.5-11.7-6.5c-3.1,0-5.7,0.7-7.9,2.1
			c-2.2,1.4-4,3.3-5.3,5.7v28.9c1.4,2.4,3.1,4.3,5.3,5.7c2.2,1.3,4.8,2,8,2c5.1,0,9-1.9,11.6-5.6c2.6-3.7,3.9-8.6,3.9-14.5V708.9z"
			/>
		<path fill="#FFFFFF" d="M1730.5,658.9v-7h19.7V729l8.9,1.5v6.9h-28.7v-6.9l8.9-1.5v-68.6L1730.5,658.9z"/>
		<path fill="#FFFFFF" d="M1806,737.5c-0.3-1.6-0.6-3.1-0.8-4.3c-0.2-1.3-0.3-2.6-0.4-3.8c-2.1,2.7-4.7,4.9-7.8,6.7
			c-3.1,1.8-6.5,2.7-10,2.7c-6.2,0-10.9-1.5-14.1-4.5s-4.8-7.3-4.8-12.7c0-5.6,2.3-10,6.8-13c4.5-3.1,10.8-4.6,18.7-4.6h11.1v-6.9
			c0-3.5-1.1-6.2-3.3-8.2c-2.2-2-5.2-3-9.2-3c-2.7,0-5.1,0.3-7.1,1c-2.1,0.7-3.7,1.6-5,2.9l-1.1,6.3h-8.3v-11.5
			c2.7-2.2,6-3.9,9.8-5.2s8-1.9,12.5-1.9c6.7,0,12.2,1.7,16.3,5.2c4.2,3.4,6.3,8.4,6.3,14.7V726c0,0.8,0,1.5,0,2.2s0.1,1.5,0.1,2.2
			l4.4,0.6v6.9H1806V737.5z M1788.7,729.6c3.6,0,6.9-0.9,9.8-2.6c3-1.7,5.1-3.8,6.4-6.2V711h-11.5c-4.4,0-7.9,1-10.5,3.1
			c-2.6,2-3.9,4.5-3.9,7.5c0,2.6,0.8,4.6,2.4,5.9S1785.4,729.6,1788.7,729.6z"/>
		<path fill="#FFFFFF" d="M1848,663.9v14.3h11.2v8H1848v36c0,2.8,0.6,4.7,1.7,5.9c1.2,1.1,2.7,1.7,4.6,1.7c1,0,2-0.1,3.2-0.2
			c1.2-0.2,2.2-0.3,3-0.5l1.5,7.4c-1,0.7-2.5,1.2-4.5,1.6c-2,0.4-3.9,0.6-5.9,0.6c-4.4,0-7.9-1.3-10.5-4c-2.6-2.6-3.9-6.8-3.9-12.5
			v-36h-9.4v-8h9.4v-14.3H1848z"/>
		<path fill="#FFFFFF" d="M1897.4,738.6c-8.3,0-14.8-2.8-19.7-8.3c-4.9-5.5-7.3-12.6-7.3-21.4v-2.4c0-8.4,2.5-15.5,7.5-21.1
			s11-8.4,17.8-8.4c8,0,14,2.4,18.1,7.2s6.2,11.3,6.2,19.3v6.7h-38.5l-0.2,0.3c0.1,5.7,1.6,10.4,4.3,14.1s6.7,5.5,11.7,5.5
			c3.7,0,6.9-0.5,9.6-1.6c2.8-1,5.1-2.5,7.1-4.3l4.2,7c-2.1,2-4.9,3.8-8.4,5.2C1906.5,737.9,1902.3,738.6,1897.4,738.6z
			 M1895.7,685.6c-3.6,0-6.7,1.5-9.3,4.6s-4.1,6.9-4.7,11.5l0.1,0.3h27.3v-1.4c0-4.2-1.1-7.8-3.4-10.6
			C1903.5,687,1900.2,685.6,1895.7,685.6z"/>
	</g>
</g>
</svg>
